<svg xmlns="http://www.w3.org/2000/svg" viewBox="0 0 300.44 300.44">
  <defs>
    <linearGradient id="bg" x1="42" y1="32" x2="258" y2="270" gradientUnits="userSpaceOnUse">
      <stop offset="0" stop-color="#44e4bd" />
      <stop offset="0.55" stop-color="#10bfa7" />
      <stop offset="1" stop-color="#07887e" />
    </linearGradient>
    <filter id="soft-shadow" x="-20%" y="-20%" width="140%" height="140%">
      <feDropShadow dx="0" dy="9" stdDeviation="7" flood-color="#00554e" flood-opacity="0.22" />
    </filter>
  </defs>

  <rect width="300.44" height="300.44" rx="89" fill="url(#bg)" />
  <path
    d="M82 93c-28 22-42 59-34 97 11 52 50 83 101 83s90-31 101-83c8-38-6-75-34-97-21-17-47-21-67-8-20-13-46-9-67 8Z"
    fill="none"
    stroke="#fff"
    stroke-width="9"
    stroke-linecap="round"
    stroke-linejoin="round"
    opacity="0.3" />
  <path
    d="M153 72c10-28 32-43 65-42-4 31-22 50-52 57"
    fill="none"
    stroke="#fff"
    stroke-width="11"
    stroke-linecap="round"
    stroke-linejoin="round"
    opacity="0.86" />
  <path d="M147 83c-4-18 1-32 16-43" fill="none" stroke="#fff" stroke-width="8" stroke-linecap="round" opacity="0.58" />

  <g filter="url(#soft-shadow)">
    <text
      x="76"
      y="191"
      fill="#fff"
      font-family="Inter, SF Pro Display, Helvetica Neue, Arial, sans-serif"
      font-size="112"
      font-weight="820">P</text>
    <text
      x="143"
      y="191"
      fill="#fff"
      font-family="Inter, SF Pro Display, Helvetica Neue, Arial, sans-serif"
      font-size="112"
      font-weight="820">S</text>
  </g>

  <path
    d="M146 103v105"
    fill="none"
    stroke="#fff"
    stroke-width="5.5"
    stroke-linecap="round"
    opacity="0.26" />
  <path
    d="M67 213c40 39 124 50 169 2"
    fill="none"
    stroke="#fff"
    stroke-width="8"
    stroke-linecap="round"
    opacity="0.22" />
</svg>
