<svg xmlns="http://www.w3.org/2000/svg" viewBox="0 0 300.44 300.44">
  <defs>
    <linearGradient id="bg" x1="28" y1="24" x2="272" y2="286" gradientUnits="userSpaceOnUse">
      <stop offset="0" stop-color="#63f1c5" />
      <stop offset="0.52" stop-color="#19bea6" />
      <stop offset="1" stop-color="#078276" />
    </linearGradient>
    <filter id="letter-shadow" x="-20%" y="-20%" width="140%" height="140%">
      <feDropShadow dx="0" dy="10" stdDeviation="9" flood-color="#005a53" flood-opacity="0.26" />
    </filter>
  </defs>

  <rect width="300.44" height="300.44" rx="74" fill="url(#bg)" />

  <g opacity="0.2" fill="none" stroke="#fff" stroke-linecap="round" stroke-linejoin="round">
    <path d="M43 226h57l-57 22Z" stroke-width="5" />
    <path d="M210 49l24 24m-52 12 24 24" stroke-width="5" />
    <path d="M205 83l41-41" stroke-width="5" />
    <path d="M223 199a32 32 0 0 1 35 35" stroke-width="5" />
    <path d="M226 236l34-34" stroke-width="5" />
    <circle cx="226" cy="236" r="4" fill="#fff" stroke="none" />
    <path d="M57 57h32m-16-16v32" stroke-width="4" />
    <path d="M246 128h18m-9-9v18" stroke-width="3.5" />
  </g>

  <g fill="#fff" opacity="0.32">
    <circle cx="48" cy="127" r="4" />
    <circle cx="74" cy="111" r="2.7" />
    <circle cx="253" cy="91" r="3.4" />
    <circle cx="222" cy="151" r="2.8" />
    <circle cx="101" cy="244" r="3.2" />
    <circle cx="266" cy="249" r="2.7" />
  </g>

  <g filter="url(#letter-shadow)">
    <text
      x="63"
      y="207"
      fill="#fff"
      font-family="Inter, SF Pro Display, Helvetica Neue, Arial, sans-serif"
      font-size="166"
      font-weight="850">P</text>
    <text
      x="151"
      y="232"
      fill="#eafff9"
      font-family="Inter, SF Pro Display, Helvetica Neue, Arial, sans-serif"
      font-size="34"
      font-weight="760"
      letter-spacing="0">Studio</text>
  </g>
</svg>
